<?xml version="1.0" standalone="no"?><!DOCTYPE svg PUBLIC "-//W3C//DTD SVG 1.1//EN" "http://www.w3.org/Graphics/SVG/1.1/DTD/svg11.dtd"><svg t="1701763086798" class="icon" viewBox="0 0 1024 1024" version="1.1" xmlns="http://www.w3.org/2000/svg" p-id="9364" width="32" height="32" xmlns:xlink="http://www.w3.org/1999/xlink"><path d="M81.92 901.12h860.16v40.96H81.92z" fill="#333333" p-id="9365"></path><path d="M532.48 942.08h-40.96V204.8c0-28.672-14.336-54.272-38.4-69.632-17.408-10.752-39.424-12.288-59.392-4.096l-179.2 75.264c-24.576 10.24-40.448 34.304-40.448 60.928V942.08h-40.96V267.776c0-43.52 25.6-81.92 65.536-98.816l179.2-75.264c32.256-13.312 68.096-10.752 96.768 7.168 36.352 22.528 57.856 61.44 57.856 104.448V942.08z" fill="#333333" p-id="9366"></path><path d="M890.88 942.08h-40.96V459.264c0-26.112-17.408-49.152-43.008-57.344l-274.432-87.04V942.08h-40.96V258.56l327.68 104.448c43.008 13.824 71.68 52.224 71.68 96.256V942.08z" fill="#333333" p-id="9367"></path><path d="M266.24 404.48h143.36v40.96H266.24zM266.24 619.52h143.36v40.96H266.24z" fill="#EB4446" p-id="9368"></path><path d="M599.04 619.52h184.32v40.96h-184.32z" fill="#333333" p-id="9369"></path><path d="M808.96 778.24H332.8v-215.04c0-33.792 27.648-61.44 61.44-61.44h476.16v215.04c0 33.792-27.648 61.44-61.44 61.44z" fill="#333333" opacity=".18" p-id="9370"></path></svg>